<svg xmlns="http://www.w3.org/2000/svg" version="1.1" xmlns:xlink="http://www.w3.org/1999/xlink" xmlns:svgjs="http://svgjs.com/svgjs" width="1000px" height="800px"><svg version="1.1" id="SvgjsSvg1002" xmlns="http://www.w3.org/2000/svg" xmlns:xlink="http://www.w3.org/1999/xlink" x="0px" y="0px" width="1000px" height="800px" viewBox="0 0 1000 800" enable-background="new 0 0 1000 800" xml:space="preserve">
<path id="SvgjsPath1001" fill="#467CBF" stroke="#3B73B9" stroke-miterlimit="10" d="M565.822,455.733
	c0,0,99.606,54.109,157.406-18.444c57.796-72.555-0.308-177.082-95.92-148.799c0,0-16.537-79.944-107.797-70.61
	c-77.109,7.886-100.027,133.042-166.434,137.488c0,0,40.583-13.999,76.245-75.485c0,0-83.612-36.096-143.879,9.837
	c-56.875,43.349-63.946,188.81,95.919,185.404v96.205c0,0,134.041-71.326,248.403,9.837c0,0-56.564-88.539-216.431-51.648v-89.77
	c0,0-46.187,10.493-92.229-6.149c-51.034-18.446-64.975-99.271-9.838-135.271c37.199-24.288,91.083-4.712,91.083-4.712
	s-18.529,48.983-78.785,63.741c0,0,55.735,32.525,111.598-38.123c73.17-92.537,148.933-74.184,183.537-2.46
	c0,0,65.177-18.445,91,25.825C735.525,386.868,709.701,485.247,565.822,455.733z"></path>
<path id="SvgjsPath1000" fill="#3B73B9" stroke="#FFFFFF" stroke-miterlimit="10" d="M498.673,32.118
	c-201.674,0-365.164,163.491-365.164,365.166c0,201.675,163.49,365.165,365.164,365.165c201.676,0,365.166-163.49,365.166-365.165
	C863.839,195.609,700.349,32.118,498.673,32.118z M498.673,738.073c-188.211,0-340.787-152.578-340.787-340.79
	c0-188.213,152.576-340.789,340.787-340.789c188.213,0,340.79,152.576,340.79,340.789
	C839.463,585.495,686.886,738.073,498.673,738.073z"></path>
</svg></svg>