<?xml version="1.0" encoding="utf-8"?>
<!-- Generator: Adobe Illustrator 16.0.0, SVG Export Plug-In . SVG Version: 6.00 Build 0)  -->
<!DOCTYPE svg PUBLIC "-//W3C//DTD SVG 1.1//EN" "http://www.w3.org/Graphics/SVG/1.1/DTD/svg11.dtd">
<svg version="1.1" id="Layer_2" xmlns="http://www.w3.org/2000/svg" xmlns:xlink="http://www.w3.org/1999/xlink" x="0px" y="0px"
	 width="1000px" height="800px" viewBox="0 0 1000 800" enable-background="new 0 0 1000 800" xml:space="preserve">
<path id="XMLID_629_" fill="#FFFFFF" d="M565.822,455.733c0,0,99.607,54.11,157.406-18.444
	c57.796-72.555-0.307-177.082-95.919-148.799c0,0-16.538-79.944-107.797-70.61c-77.11,7.886-100.028,133.042-166.434,137.488
	c0,0,40.583-13.999,76.245-75.485c0,0-83.612-36.096-143.879,9.837c-56.875,43.349-63.946,188.809,95.919,185.404v96.205
	c0,0,134.041-71.326,248.404,9.837c0,0-56.565-88.539-216.431-51.648v-89.77c0,0-46.187,10.493-92.23-6.149
	c-51.034-18.446-64.974-99.271-9.837-135.271c37.199-24.288,91.083-4.712,91.083-4.712s-18.53,48.983-78.786,63.741
	c0,0,55.736,32.525,111.598-38.123c73.17-92.537,148.933-74.184,183.537-2.46c0,0,65.177-18.445,91,25.825
	C735.525,386.868,709.701,485.247,565.822,455.733z"/>
<path id="XMLID_669_" fill="#FFFFFF" d="M498.673,32.118c-201.674,0-365.164,163.491-365.164,365.166
	s163.49,365.165,365.164,365.165c201.676,0,365.166-163.49,365.166-365.165S700.349,32.118,498.673,32.118z M498.673,738.073
	c-188.211,0-340.787-152.578-340.787-340.79c0-188.213,152.576-340.789,340.787-340.789c188.213,0,340.79,152.576,340.79,340.789
	C839.463,585.495,686.886,738.073,498.673,738.073z"/>
</svg>
